<svg xmlns="http://www.w3.org/2000/svg" width="45" height="45" viewBox="0 0 45 45">
  <g id="Grupo_1527" data-name="Grupo 1527" transform="translate(-141 -29)">
    <g id="Elipse_13" data-name="Elipse 13" transform="translate(141 29)" fill="none" stroke="#efefef" stroke-width="2">
      <circle cx="22.5" cy="22.5" r="22.5" stroke="none"/>
      <circle cx="22.5" cy="22.5" r="21.5" fill="none"/>
    </g>
    <g id="Grupo_1476" data-name="Grupo 1476" transform="translate(-431 -906)">
      <g id="pin" transform="translate(584.318 943.212)">
        <g id="Grupo_26" data-name="Grupo 26">
          <g id="Grupo_25" data-name="Grupo 25">
            <path id="Trazado_41" data-name="Trazado 41" d="M86.26,0a10.262,10.262,0,0,0-8.729,15.655L85.676,28.78a.855.855,0,0,0,.726.4h.007a.855.855,0,0,0,.727-.416l7.937-13.252A10.262,10.262,0,0,0,86.26,0Zm7.345,14.639L86.39,26.687l-7.4-11.933a8.556,8.556,0,1,1,14.621-.116Z" transform="translate(-76)" fill="#efefef"/>
          </g>
        </g>
        <g id="Grupo_28" data-name="Grupo 28" transform="translate(5.13 5.13)">
          <g id="Grupo_27" data-name="Grupo 27">
            <path id="Trazado_42" data-name="Trazado 42" d="M171.13,90a5.13,5.13,0,1,0,5.13,5.13A5.136,5.136,0,0,0,171.13,90Zm0,8.562a3.431,3.431,0,1,1,3.426-3.431A3.434,3.434,0,0,1,171.13,98.562Z" transform="translate(-166 -90)" fill="#efefef"/>
          </g>
        </g>
      </g>
    </g>
  </g>
</svg>
