<svg xmlns="http://www.w3.org/2000/svg" width="256.126" height="72" viewBox="0 0 256.126 72">
  <g id="Grupo_1513" data-name="Grupo 1513" transform="translate(-113.412 -15.799)">
    <g id="Grupo_1515" data-name="Grupo 1515" transform="translate(113.412 15.799)">
      <rect id="Rect치ngulo_140" data-name="Rect치ngulo 140" width="72" height="72" fill="#fff"/>
      <g id="Grupo_1514" data-name="Grupo 1514" transform="translate(1.036 2.611)">
        <g id="Grupo_1513-2" data-name="Grupo 1513" transform="translate(1.575)">
          <rect id="Rect치ngulo_141" data-name="Rect치ngulo 141" width="66.778" height="66.778" fill="#004c94"/>
          <path id="Trazado_1051" data-name="Trazado 1051" d="M182.638,83.49H115.86V63.026l36.715-21.81,30.063,19.1Z" transform="translate(-115.86 -16.712)" fill="#398245" fill-rule="evenodd"/>
        </g>
        <path id="Trazado_1052" data-name="Trazado 1052" d="M184.312,66.806C170.653,61.65,160.731,54.223,153.4,43.786a68.3,68.3,0,0,1-39.016,22.178c12.1-15.553,20.724-23.455,27.364-31.719,1.792-2.232,3.906-4.79,5.308-6.975,21.326,5.179,33.9,24.175,37.256,39.536" transform="translate(-114.383 -17.643)" fill="#fff"/>
        <path id="Trazado_1053" data-name="Trazado 1053" d="M152.817,69.379c-3.119-3.447-2.188-7.612.016-9.593,1.447-1.3,7.654-1.013,10.842,2.3a6.132,6.132,0,0,1-1.167,9.713c-2.327,1.5-5.655,2.04-9.691-2.416" transform="translate(-111.949 -15.519)" fill="#efa220"/>
      </g>
    </g>
    <g id="Grupo_1518" data-name="Grupo 1518" transform="translate(192.927 28.954)">
      <g id="Grupo_1517" data-name="Grupo 1517">
        <g id="Grupo_1516" data-name="Grupo 1516">
          <path id="Trazado_1054" data-name="Trazado 1054" d="M221.787,61.873l-14.081-33.33h-5.791l-13.968,33.33h5.337l3.177-7.8h16.3l3.177,7.8ZM211.341,50.468H197.827l4.941-11.85a37.786,37.786,0,0,0,1.757-5.035h.113a32.544,32.544,0,0,0,1.706,4.984Z" transform="translate(-187.948 -28.102)" fill="#fff" fill-rule="evenodd"/>
          <path id="Trazado_1055" data-name="Trazado 1055" d="M254.821,29.558a39.3,39.3,0,0,0-10.5-1.428c-12.888,0-20.725,7.551-20.725,17.774,0,10.317,7.438,16.44,19.022,16.44a42.97,42.97,0,0,0,12.661-1.926v-15.5h-5.168V57.509a25.788,25.788,0,0,1-6.757.884c-8.63,0-14.195-4.739-14.195-13.033,0-8.884,6.757-13.329,14.648-13.329a30.716,30.716,0,0,1,10.223,1.776Z" transform="translate(-185.567 -28.13)" fill="#fff"/>
          <path id="Trazado_1056" data-name="Trazado 1056" d="M293.441,49.134V28.544h-5.109V49.479c0,6.718-3.123,9.136-9.824,9.136-7.724,0-9.484-3.7-9.484-8.294V28.544H263.8v22.12c0,5.924,2.386,11.7,14.367,11.7,9.992,0,15.273-4.5,15.273-13.233" transform="translate(-182.881 -28.102)" fill="#fff"/>
          <path id="Trazado_1057" data-name="Trazado 1057" d="M329.978,61.873,315.9,28.543h-5.791l-13.968,33.33h5.337l3.176-7.8h16.3l3.177,7.8ZM319.532,50.468H306.018l4.941-11.85a37.8,37.8,0,0,0,1.757-5.035h.113a32.543,32.543,0,0,0,1.706,4.984Z" transform="translate(-180.721 -28.102)" fill="#fff" fill-rule="evenodd"/>
          <path id="Trazado_1058" data-name="Trazado 1058" d="M354.922,52.073c0-10.418-17.321-7.8-17.321-15.008,0-3.11,2.727-5.184,7.95-5.184a30,30,0,0,1,6.926.884l.286-4.045a40.846,40.846,0,0,0-6.926-.591c-8.63,0-13.626,3.951-13.626,9.428,0,10.615,17.261,7.653,17.261,15.157,0,4.1-3.806,5.728-8.4,5.728a28.329,28.329,0,0,1-7.9-1.236l-.282,4.35a36.648,36.648,0,0,0,7.723.786c8.913,0,14.308-4.295,14.308-10.27" transform="translate(-178.311 -28.13)" fill="#fff"/>
          <path id="Trazado_1059" data-name="Trazado 1059" d="M228.074,81.189c-.023-1-.047-2.246-.047-3.345V73.207c0-2.316-.959-3.884-4.3-3.884a10.744,10.744,0,0,0-4.077.841l.211,1.8a7.356,7.356,0,0,1,3.513-.959c1.918,0,2.552.865,2.552,2.48v.865c-4.4,0-7,1.616-7,4.167,0,1.847,1.31,2.879,3.231,2.879a4.153,4.153,0,0,0,3.956-2.527h.047a14.269,14.269,0,0,0-.117,2.316Zm-2.152-5.148c0,1.826-1.264,3.7-3.162,3.7a1.6,1.6,0,0,1-1.779-1.615c0-1.049.892-2.293,4.941-2.293Z" transform="translate(-185.879 -25.378)" fill="#fff" fill-rule="evenodd"/>
          <path id="Trazado_1060" data-name="Trazado 1060" d="M245.225,81.19V73.045c0-2.058-.841-3.721-3.51-3.721a4.251,4.251,0,0,0-4.1,2.688l-.047-.023a14.138,14.138,0,0,0,.183-2.433h-2.034V81.19h2.1V75.6c0-2.574,1.382-4.519,3.3-4.519,1.546,0,1.992.959,1.992,2.6V81.19Z" transform="translate(-184.757 -25.378)" fill="#fff"/>
          <path id="Trazado_1061" data-name="Trazado 1061" d="M262.94,81.517V64.428h-2.1v5.411a18.441,18.441,0,0,0-1.964-.122c-3.677,0-6.021,2.457-6.021,6.53,0,3.4,1.432,5.481,4.284,5.481a4.132,4.132,0,0,0,3.912-2.6l.044.023a13.824,13.824,0,0,0-.185,2.363Zm-2.1-6.017c0,2.038-1.075,4.491-3.184,4.491-1.757,0-2.574-1.424-2.574-3.928,0-3.35,1.474-4.683,3.7-4.683a8,8,0,0,1,2.062.258Z" transform="translate(-183.613 -25.705)" fill="#fff" fill-rule="evenodd"/>
          <path id="Trazado_1062" data-name="Trazado 1062" d="M273.338,66.534a1.366,1.366,0,0,0-1.4-1.357,1.37,1.37,0,1,0,0,2.738,1.4,1.4,0,0,0,1.4-1.382m-.349,3.3h-2.108V81.468h2.108Z" transform="translate(-182.432 -25.655)" fill="#fff" fill-rule="evenodd"/>
          <path id="Trazado_1063" data-name="Trazado 1063" d="M290.889,81.19V73.045c0-2.058-.845-3.721-3.51-3.721a4.261,4.261,0,0,0-4.1,2.688l-.047-.023a14.144,14.144,0,0,0,.188-2.433h-2.034V81.19h2.1V75.6c0-2.574,1.381-4.519,3.3-4.519,1.546,0,1.987.959,1.987,2.6V81.19Z" transform="translate(-181.706 -25.378)" fill="#fff"/>
          <path id="Trazado_1064" data-name="Trazado 1064" d="M307.669,81.189c-.028-1-.047-2.246-.047-3.345V73.207c0-2.316-.963-3.884-4.308-3.884a10.725,10.725,0,0,0-4.073.841l.207,1.8a7.373,7.373,0,0,1,3.514-.959c1.917,0,2.551.865,2.551,2.48v.865c-4.4,0-7,1.616-7,4.167,0,1.847,1.31,2.879,3.231,2.879a4.153,4.153,0,0,0,3.956-2.527h.047a14.266,14.266,0,0,0-.117,2.316Zm-2.156-5.148c0,1.826-1.264,3.7-3.161,3.7a1.593,1.593,0,0,1-1.776-1.615c0-1.049.888-2.293,4.937-2.293Z" transform="translate(-180.562 -25.378)" fill="#fff" fill-rule="evenodd"/>
          <path id="Trazado_1065" data-name="Trazado 1065" d="M322.923,77.7c0-3.909-5.431-2.528-5.431-5.079,0-1.009.771-1.662,2.316-1.662a7.99,7.99,0,0,1,2.341.371l.047-1.753a11.884,11.884,0,0,0-2.223-.235c-3.044,0-4.659,1.522-4.659,3.489,0,4.1,5.411,2.5,5.411,5.1,0,1.075-1.057,1.779-2.6,1.779a8.69,8.69,0,0,1-2.551-.4l-.067,1.874a13.3,13.3,0,0,0,2.457.207c3.087,0,4.962-1.592,4.962-3.7" transform="translate(-179.44 -25.377)" fill="#fff"/>
          <path id="Trazado_1066" data-name="Trazado 1066" d="M329.046,79.64l-.795-1.116c-.086-.113-.176-.238-.27-.36a.925.925,0,0,0,.842-.924c0-.676-.47-.93-1.2-.93-.38,0-.692,0-.951.019v3.31h.637v-1.37h.028l.92,1.37Zm-.889-2.336c0,.309-.235.5-.618.5-.1,0-.188,0-.231-.007v-.955a1.527,1.527,0,0,1,.251-.016c.4,0,.6.157.6.474" transform="translate(-178.681 -24.912)" fill="#fff" fill-rule="evenodd"/>
          <path id="Trazado_1067" data-name="Trazado 1067" d="M327.873,75.238a2.811,2.811,0,1,1-2.813,2.809,2.81,2.81,0,0,1,2.813-2.809m0,.408a2.4,2.4,0,1,0,2.4,2.4,2.4,2.4,0,0,0-2.4-2.4" transform="translate(-178.789 -24.983)" fill="#fff"/>
        </g>
      </g>
    </g>
  </g>
</svg>
